**ABCDEFGHIJKLMNOPQRSTUVWXYZabcdefghijklmnopqrstuvwxyz**************************
**PARASOLID !"#$%&'()*+,-./:;<=>?@[\]^_`{|}~0123456789**************************
**PART1;
MC=AMD64;
MC_MODEL=Intel64 Family 6 Model 60 Stepping 3, GenuineIntel;
MC_ID=unknown;
OS=Windows_NT;
OS_RELEASE=unknown;
FRU=Parasolid Version 29.0, build 195, 12- 2-2016;
APPL=SOLIDWORKS 2017-2017033;
SITE=;
USER=unknown;
FORMAT=text;
GUISE=transmit;
KEY=CFD SECTION 1 OUTER;
FILE=CFD SECTION 1 OUTER.x_t;
DATE=Fri Mar 30 20:10:57 2018;
**PART2;
SCH=SCH_2900195_28101;
USFLD_SIZE=0;
**PART3;
**END_OF_HEADER*****************************************************************
T51 : TRANSMIT FILE created by modeller version 290019523 SCH_2900195_28101_1300
6203 0 12 33 CCCCCCI4 mesh1006 0 I8 polyline1008 0 CCCCCCCDI5 owner1040 0 CCCCCC
I13 boundary_mesh1006 0 I17 boundary_polyline1008 0 CCCA16 index_map_offset0 0 1
 dA9 index_map82 0 A17 node_id_index_map82 0 A20 schema_embedding_map82 0 A5 chi
ld12 0 A14 lowest_node_id0 0 1 dZ1 651 0 2 0 0 0 0 0 0 1e3 1e-8 0 3 0 1 0 1 1 4
 5 6 7 0 0 8 9 10 0 0 0 0 0 0 70 11 CI9 list_type0 0 1 uI10 notransmit0 0 1 lCCC
DCCDI12 finger_index0 0 1 dI12 finger_block1012 0 CZ2 0 4 T1 0 0 2 20 1 11 11 13
 255 4 94 0 1 0 12 0 0 13 0 50 255 5 89 0 14 15 0 0 +.000183947771505097 .056 .0
00763376857079086 -1 0 0 0 0 1 30 255 6 93 0 9 16 0 0 +.000183947771505097 .056
 .000763376857079086 0 -1 0 29 255 7 392 0 10 17 0 -.001816052228494905 .056 .00
3763376857079085 19 8 CCCCCCCA5 owner12 0 Z8 28 0 1 13 0 18 V0 16 255 9 77 0 ?19
 0 20 6 0 0 1 18 255 10 390 0 21 0 22 7 ?1 17 255 21 0 23 24 25 10 26 27 0 28 -1
8 22 367 0 29 10 30 17 ?1 17 29 0 31 32 33 22 34 35 0 36 -18 30 260 0 37 22 38 3
9 ?1 29 17 369 0 22 39 7 -.000816052228494903 0 .003763376857079085 29 39 262 0
 30 40 17 -.003816052228494905 .056 .003763376857079085 29 40 239 0 38 41 39 -.0
02816052228494905 0 .003763376857079085 18 38 237 0 42 30 43 40 ?1 29 41 132 0 4
3 44 40 -.0048160522284949 .056 .001763376857079085 18 43 130 0 45 38 46 41 ?1 2
9 44 109 0 46 47 41 -.0058160522284949 0 .001763376857079085 18 46 107 0 48 43 4
9 44 ?1 29 47 70 0 50 51 44 .000183947771505097 0 .00476337685707909 18 50 61 0
 52 53 54 47 ?1 29 51 71 0 54 55 47 -.0068160522284949 0 .00476337685707909 18 5
4 62 0 56 50 57 51 ?1 29 55 72 0 57 58 51 -.0068160522284949 0 .0007633768570790
86 18 57 63 0 59 54 60 55 ?1 29 58 73 0 60 61 55 .000183947771505097 0 .00076337
6857079086 18 60 64 0 62 57 63 58 ?1 29 61 27 0 49 64 58 .000183947771505097 .05
6 .00476337685707909 18 49 25 0 65 46 66 61 ?1 29 64 24 0 66 67 61 -.00681605222
84949 .056 .00476337685707909 18 66 22 0 68 49 69 64 ?1 29 67 21 0 69 70 64 -.00
68160522284949 .056 .000763376857079086 18 69 19 0 71 66 53 67 ?1 29 70 18 0 53
 72 67 .000183947771505097 .056 .000763376857079086 18 53 16 0 73 69 50 70 ?1 29
 72 227 0 74 75 70 -.0048160522284949 0 .001763376857079085 18 74 178 0 76 77 78
 72 ?1 29 75 228 0 78 79 72 -.0048160522284949 0 .003763376857079085 18 78 176 0
 80 74 81 75 ?1 29 79 229 0 81 82 75 -.0058160522284949 0 .003763376857079085 18
 81 183 0 83 78 84 79 ?1 29 82 230 0 63 85 79 -.0058160522284949 .056 .001763376
857079085 18 63 182 0 86 60 87 82 ?1 29 85 232 0 87 88 82 -.0048160522284949 .05
6 .003763376857079085 18 87 180 0 89 63 77 85 ?1 29 88 233 0 77 90 85 -.00581605
22284949 .056 .003763376857079085 18 77 177 0 91 87 74 88 ?1 29 90 357 0 92 93 8
8 -.003816052228494905 0 .003763376857079085 18 92 308 0 94 95 96 90 ?1 29 93 35
8 0 96 97 90 -.003816052228494905 0 .001763376857079085 18 96 306 0 98 92 99 93
 ?1 29 97 359 0 99 100 93 -.002816052228494905 0 .001763376857079085 18 99 313 0
 101 96 102 97 ?1 29 100 360 0 84 103 97 -.002816052228494905 .056 .003763376857
079085 18 84 312 0 104 81 105 100 ?1 29 103 362 0 105 106 100 -.0038160522284949
05 .056 .001763376857079085 18 105 310 0 107 84 95 103 ?1 29 106 363 0 95 108 10
3 -.002816052228494905 .056 .001763376857079085 18 95 307 0 109 105 92 106 ?1 29
 108 487 0 110 111 106 -.001816052228494905 0 .003763376857079085 18 110 438 0 2
6 112 113 108 ?1 29 111 488 0 113 114 108 -.001816052228494905 0 .00176337685707
9085 18 113 436 0 115 110 116 111 ?1 29 114 489 0 116 117 111 -.0008160522284949
03 0 .001763376857079085 18 116 443 0 118 113 0 114 ?1 29 117 490 0 102 119 114
 -.000816052228494903 .056 .003763376857079085 18 102 442 0 24 99 120 117 ?1 29
 119 492 0 120 121 117 -.001816052228494905 .056 .001763376857079085 18 120 440
 0 122 102 112 119 ?1 29 121 493 0 112 0 119 -.000816052228494903 .056 .00176337
6857079085 18 112 437 0 123 120 110 121 ?1 17 123 0 31 33 32 112 124 125 0 126 +
15 255 31 447 0 29 127 0 17 33 0 31 29 123 116 126 128 0 34 +17 32 0 31 123 29 1
02 36 129 0 124 -17 124 0 130 131 132 102 123 125 0 0 -16 125 424 0 ?123 133 134
 135 0 0 1 17 126 0 136 122 118 112 33 128 0 132 -15 136 451 0 118 137 0 17 122
 0 136 115 126 120 132 133 0 138 +17 118 0 136 126 115 116 139 140 0 33 -16 128
 415 0 ?33 141 142 143 0 0 1 17 132 0 130 124 144 112 122 133 0 0 -15 130 388 0
 132 12 0 17 144 0 130 132 131 120 28 145 0 0 -16 133 427 0 ?122 145 125 146 0 0
 1 16 145 430 0 ?28 147 133 148 0 0 1 30 146 484 0 133 135 148 0 +-.001816052228
494905 .056 .001763376857079085 -1 0 0 30 135 485 0 125 0 146 0 +-.0008160522284
94903 .056 .003763376857079085 0 0 -1 30 148 483 0 145 146 149 0 +-.001816052228
494905 .056 .003763376857079085 0 0 1 30 149 482 0 147 148 150 0 +-.001816052228
494905 .056 .003763376857079085 1 0 0 16 147 433 0 ?24 129 145 149 0 0 1 30 150
 481 0 35 149 151 0 +-.000816052228494903 0 .003763376857079085 0 0 -1 16 35 408
 0 ?34 140 0 150 0 0 1 30 151 480 0 140 150 152 0 +-.001816052228494905 0 .00176
3376857079085 -1 0 0 16 140 412 0 ?139 153 35 151 0 0 1 30 152 479 0 153 151 154
 0 +-.001816052228494905 0 .003763376857079085 0 0 1 16 153 416 0 ?155 134 140 1
52 0 0 1 30 154 478 0 134 152 156 0 +-.001816052228494905 0 .003763376857079085
 1 0 0 16 134 420 0 ?157 125 153 154 0 0 1 30 156 477 0 129 154 158 0 +-.0008160
52228494903 .056 .003763376857079085 0 -1 0 16 129 411 0 ?36 27 147 156 0 0 1 30
 158 476 0 27 156 159 0 +-.001816052228494905 .056 .003763376857079085 0 -1 0 16
 27 423 0 ?26 142 129 158 0 0 1 30 159 475 0 142 158 143 0 +-.001816052228494905
 .056 .001763376857079085 0 -1 0 16 142 419 0 ?115 128 27 159 0 0 1 30 143 474 0
 128 159 160 0 +-.000816052228494903 .056 .001763376857079085 0 -1 0 30 160 355
 0 161 143 162 0 +-.002816052228494905 .056 .003763376857079085 0 0 -1 16 161 29
4 0 ?109 163 164 160 0 0 1 30 162 354 0 163 160 165 0 +-.003816052228494905 .056
 .001763376857079085 -1 0 0 16 163 297 0 ?107 166 161 162 0 0 1 30 165 353 0 166
 162 167 0 +-.003816052228494905 .056 .003763376857079085 0 0 1 16 166 300 0 ?16
8 169 163 165 0 0 1 30 167 352 0 169 165 170 0 +-.003816052228494905 .056 .00376
3376857079085 1 0 0 16 169 303 0 ?104 171 166 167 0 0 1 30 170 351 0 141 167 172
 0 +-.002816052228494905 0 .003763376857079085 0 0 -1 16 141 278 0 ?173 174 128
 170 0 0 1 30 172 350 0 174 170 175 0 +-.003816052228494905 0 .00176337685707908
5 -1 0 0 16 174 282 0 ?176 177 141 172 0 0 1 30 175 349 0 177 172 178 0 +-.00381
6052228494905 0 .003763376857079085 0 0 1 16 177 286 0 ?179 164 174 175 0 0 1 30
 178 348 0 164 175 180 0 +-.003816052228494905 0 .003763376857079085 1 0 0 16 16
4 290 0 ?181 161 177 178 0 0 1 30 180 347 0 171 178 182 0 +-.002816052228494905
 .056 .003763376857079085 0 -1 0 16 171 281 0 ?183 184 169 180 0 0 1 30 182 346
 0 184 180 185 0 +-.003816052228494905 .056 .003763376857079085 0 -1 0 16 184 29
3 0 ?94 186 171 182 0 0 1 30 185 345 0 186 182 187 0 +-.003816052228494905 .056
 .001763376857079085 0 -1 0 16 186 289 0 ?98 188 184 185 0 0 1 30 187 344 0 188
 185 189 0 +-.002816052228494905 .056 .001763376857079085 0 -1 0 16 188 285 0 ?1
90 191 186 187 0 0 1 30 189 225 0 192 187 193 0 +-.0058160522284949 .056 .003763
376857079085 0 0 1 16 192 164 0 ?91 194 195 189 0 0 1 30 193 224 0 194 189 196 0
 +-.0058160522284949 .056 .003763376857079085 1 0 0 16 194 167 0 ?89 197 192 193
 0 0 1 30 196 223 0 197 193 198 0 +-.0048160522284949 .056 .003763376857079085 0
 0 -1 16 197 170 0 ?199 200 194 196 0 0 1 30 198 222 0 200 196 201 0 +-.00581605
22284949 .056 .001763376857079085 -1 0 0 16 200 173 0 ?86 202 197 198 0 0 1 30 2
01 221 0 191 198 203 0 +-.0058160522284949 0 .003763376857079085 0 0 1 16 191 14
8 0 ?204 205 188 201 0 0 1 30 203 220 0 205 201 206 0 +-.0058160522284949 0 .003
763376857079085 1 0 0 16 205 152 0 ?207 208 191 203 0 0 1 30 206 219 0 208 203 2
09 0 +-.0048160522284949 0 .003763376857079085 0 0 -1 16 208 156 0 ?210 195 205
 206 0 0 1 30 209 218 0 195 206 211 0 +-.0058160522284949 0 .001763376857079085
 -1 0 0 16 195 160 0 ?212 192 208 209 0 0 1 30 211 217 0 202 209 213 0 +-.005816
0522284949 .056 .001763376857079085 0 -1 0 16 202 151 0 ?214 215 200 211 0 0 1 3
0 213 216 0 215 211 216 0 +-.0048160522284949 .056 .001763376857079085 0 -1 0 16
 215 163 0 ?76 217 202 213 0 0 1 30 216 215 0 217 213 218 0 +-.0048160522284949
 .056 .003763376857079085 0 -1 0 16 217 159 0 ?80 219 215 216 0 0 1 30 218 214 0
 219 216 220 0 +-.0058160522284949 .056 .003763376857079085 0 -1 0 16 219 155 0
 ?221 222 217 218 0 0 1 30 220 5 0 223 218 224 0 +.000183947771505097 .056 .0007
63376857079086 0 0 -1 16 223 4 0 ?225 226 227 220 0 0 1 30 224 8 0 226 220 228 0
 +-.0068160522284949 .056 .000763376857079086 -1 0 0 16 226 7 0 ?71 229 223 224
 0 0 1 30 228 11 0 229 224 230 0 +-.0068160522284949 .056 .000763376857079086 0
 0 1 16 229 10 0 ?68 231 226 228 0 0 1 30 230 14 0 231 228 232 0 +-.006816052228
4949 .056 .00476337685707909 1 0 0 16 231 13 0 ?65 233 229 230 0 0 1 30 232 69 0
 222 230 234 0 +.000183947771505097 0 .000763376857079086 0 0 -1 16 222 57 0 ?23
5 236 219 232 0 0 1 30 234 68 0 236 232 237 0 +-.0068160522284949 0 .00076337685
7079086 -1 0 0 16 236 53 0 ?59 238 222 234 0 0 1 30 237 67 0 238 234 239 0 +-.00
68160522284949 0 .000763376857079086 0 0 1 16 238 49 0 ?56 227 236 237 0 0 1 30
 239 66 0 227 237 240 0 +-.0068160522284949 0 .00476337685707909 1 0 0 16 227 45
 0 ?52 223 238 239 0 0 1 30 240 90 0 233 239 241 0 +.000183947771505097 .056 .00
476337685707909 0 -1 0 16 233 74 0 ?242 243 231 240 0 0 1 30 241 91 0 243 240 16
 0 +-.0068160522284949 .056 .00476337685707909 0 -1 0 16 243 75 0 ?244 20 233 24
1 0 0 1 30 16 92 0 20 241 6 0 +-.0068160522284949 .056 .000763376857079086 0 -1
 0 16 20 76 0 ?245 9 243 16 0 0 1 17 245 0 246 56 247 57 248 20 0 249 +15 246 80
 0 56 250 0 17 56 0 246 251 245 54 249 238 0 244 +17 247 0 246 245 251 69 68 229
 0 0 -17 248 0 252 73 59 69 245 20 0 247 -17 249 0 253 62 254 57 56 238 0 0 -15
 253 44 0 255 256 257 17 62 0 253 255 249 60 59 236 0 19 -17 254 0 253 249 255 5
4 52 227 0 0 -17 255 0 253 254 62 50 235 222 0 0 -17 52 0 258 259 244 50 254 227
 0 242 +15 258 78 0 52 260 0 17 259 0 258 261 52 49 242 233 0 262 -17 244 0 258
 52 261 54 251 243 0 254 +17 242 0 263 235 262 50 259 233 0 255 +15 263 84 0 235
 14 0 17 235 0 263 264 242 60 255 222 0 0 +17 262 0 263 242 264 49 225 223 0 0 -
17 264 0 263 262 235 53 19 9 0 0 -17 225 0 265 71 65 53 262 223 0 264 +15 265 3
 0 225 12 266 17 71 0 265 68 225 69 73 226 0 248 +17 65 0 265 225 68 49 261 231
 0 259 +17 68 0 265 65 71 66 247 229 0 251 +17 261 0 258 244 259 66 65 231 0 0 -
17 251 0 246 247 56 66 244 243 0 261 -17 73 0 252 19 248 53 71 226 0 225 -15 252
 82 0 59 267 0 17 19 0 252 59 73 60 264 9 0 235 +17 59 0 252 248 19 57 62 236 0
 245 +14 255 267 83 268 ?250 14 252 4 15 -0 0 250 14 18 81 255 1 268 634 269 267
 270 0 0 271 272 14 250 81 271 ?260 267 246 4 273 -0 0 260 267 18 14 14 85 274 ?
267 256 263 4 5 -0 0 267 256 18 50 15 88 0 267 273 5 0 +-.0068160522284949 .056
 .000763376857079086 0 0 1 1 0 0 13 18 29 0 0 0 0 0 0 8 12 14 12 405 275 ?256 0
 265 4 276 +0 0 256 0 18 81 1 275 637 269 12 277 0 274 278 279 14 256 385 278 ?1
4 12 280 4 281 -0 0 14 12 18 50 276 2 0 12 282 281 0 +0 .056 0 0 1 0 0 0 1 50 28
2 208 0 283 284 276 0 +-.0058160522284949 .056 .003763376857079085 1 0 0 0 0 -1
 50 281 65 0 256 276 285 0 +0 0 0 0 1 0 0 0 1 50 285 86 0 260 281 273 0 +-.00681
60522284949 .056 .00476337685707909 0 0 -1 -1 0 0 14 260 79 286 ?283 250 258 4 2
85 -0 0 283 250 18 50 273 87 0 250 285 15 0 +-.0068160522284949 .056 .0007633768
57079086 1 0 0 0 0 -1 81 1 286 639 269 260 287 0 278 288 289 14 283 184 288 ?290
 260 291 4 282 +0 0 290 260 18 81 1 288 640 269 283 292 0 286 293 294 14 290 188
 293 ?295 283 296 4 284 +0 0 295 283 18 15 291 187 0 48 283 0 17 48 0 291 297 22
1 46 204 191 0 214 -17 297 0 291 91 48 63 214 202 0 298 -17 221 0 291 48 91 81 2
99 219 0 204 +17 204 0 257 207 212 81 48 191 0 0 +17 214 0 300 301 86 46 297 202
 0 212 +15 300 199 0 301 302 0 17 301 0 300 45 214 74 212 195 0 210 -17 86 0 300
 214 45 63 303 200 0 297 +17 212 0 257 204 210 46 301 195 0 0 +15 257 123 0 204
 256 304 17 210 0 257 212 207 74 305 208 0 0 +17 207 0 257 210 204 78 83 205 0 0
 +17 305 0 306 307 76 78 210 208 0 207 -15 306 195 0 305 295 0 17 307 0 306 199
 305 87 80 217 0 308 -17 76 0 306 305 199 74 45 215 0 301 +17 199 0 306 76 307 4
3 308 197 0 303 +17 45 0 300 86 301 43 76 215 0 199 -17 308 0 266 309 303 87 199
 197 0 0 -17 303 0 266 308 298 43 86 200 0 0 -15 266 128 0 309 12 310 17 298 0 2
66 303 309 63 91 192 0 0 -17 309 0 266 298 308 77 89 194 0 0 -17 91 0 291 221 29
7 77 298 192 0 299 +17 299 0 296 89 83 77 221 219 0 309 -15 296 191 0 83 290 0 1
7 89 0 296 80 299 87 309 194 0 307 +17 83 0 296 299 80 81 207 205 0 221 -17 80 0
 296 83 89 78 307 217 0 305 +15 310 258 0 311 12 130 17 311 0 310 312 313 95 107
 163 0 0 -17 312 0 310 314 311 84 109 161 0 0 -17 313 0 310 311 314 105 168 166
 0 0 -17 107 0 315 98 316 105 311 163 0 317 +15 315 321 0 101 318 0 17 98 0 315
 101 107 96 317 186 0 319 +17 316 0 315 107 101 95 190 188 0 311 -17 317 0 320 1
68 319 105 98 186 0 313 -15 320 325 0 319 321 0 17 168 0 320 94 317 30 313 166 0
 314 +17 319 0 320 317 94 96 179 177 0 176 -17 94 0 320 319 168 92 37 184 0 322
 +17 179 0 280 181 176 92 319 177 0 0 +17 176 0 280 179 173 96 101 174 0 0 +15 2
80 253 0 173 256 253 17 173 0 280 176 181 99 42 141 0 0 +17 101 0 315 316 98 99
 176 174 0 190 -17 190 0 323 42 109 99 316 188 0 173 +15 323 317 0 42 324 0 17 4
2 0 323 325 190 38 173 141 0 183 -17 109 0 323 190 325 95 312 161 0 316 +17 325
 0 323 109 42 84 183 171 0 312 -17 183 0 326 322 104 38 325 171 0 181 +15 326 32
9 0 322 327 0 17 322 0 326 37 183 92 181 164 0 179 -17 104 0 326 183 37 84 314 1
69 0 325 +17 181 0 280 173 179 38 322 164 0 0 +17 37 0 326 104 322 30 94 184 0 1
68 -17 314 0 310 313 312 30 104 169 0 0 -14 327 326 328 ?127 321 326 4 329 +0 0
 127 321 18 81 1 328 642 269 327 330 0 293 331 332 14 127 444 331 ?137 327 31 4
 333 +0 0 137 327 18 14 321 322 334 ?327 318 320 4 335 +0 0 327 318 18 50 329 34
1 0 327 333 335 0 +-.003816052228494905 .056 .003763376857079085 0 0 -1 -1 0 0 5
0 333 468 0 127 336 329 0 +-.000816052228494903 .056 .003763376857079085 -1 0 0
 0 0 1 50 335 340 0 321 329 337 0 +-.003816052228494905 .056 .003763376857079085
 1 0 0 0 0 -1 50 337 339 0 318 335 338 0 +-.003816052228494905 .056 .00176337685
7079085 0 0 1 1 0 0 14 318 318 339 ?321 324 315 4 337 +0 0 321 324 18 50 338 338
 0 324 337 340 0 +-.002816052228494905 .056 .003763376857079085 -1 0 0 0 0 1 14
 324 314 341 ?318 302 323 4 338 +0 0 318 302 18 50 340 211 0 302 338 342 0 +-.00
58160522284949 .056 .001763376857079085 0 0 1 1 0 0 14 302 196 343 ?324 295 300
 4 340 +0 0 324 295 18 50 342 210 0 295 340 284 0 +-.0048160522284949 .056 .0037
63376857079085 -1 0 0 0 0 1 14 295 192 344 ?302 290 306 4 342 +0 0 302 290 18 50
 284 209 0 290 342 282 0 +-.0058160522284949 .056 .003763376857079085 0 0 -1 -1
 0 0 81 1 344 648 269 295 345 0 343 346 347 80 255 1 269 348 349 9000 1 1 1 1 1
 1 1 1 0 FFFFTFTFFFFFFF1 81 1 345 586 350 295 0 344 351 352 353 81 1 343 647 269
 302 352 0 341 344 354 81 1 346 649 269 137 355 0 344 356 357 82 255 1 347 11469
45639 14 137 448 346 ?358 127 136 4 336 +0 0 358 127 18 81 1 355 593 350 137 0 3
46 359 360 361 81 1 356 650 269 358 360 0 346 362 363 82 1 357 1170604135 14 358
 452 356 ?364 137 365 4 366 +0 0 364 137 18 81 1 360 594 350 358 0 356 355 367 3
68 81 1 362 651 269 364 367 0 356 0 369 82 1 363 1170341991 14 364 456 362 ?0 35
8 23 4 370 +0 0 0 358 18 81 1 367 595 350 364 0 362 360 0 371 82 1 369 117007984
7 80 1 350 0 372 8001 0 0 0 0 3 5 0 0 0 FFFFTFTFFFFFFF2 83 255 3 371 .7921568627
45098 .819607843137255 .933333333333333 79 255 15 372 SDL/TYSA_COLOUR15 23 459 0
 25 364 0 50 370 471 0 364 0 366 0 +-.001816052228494905 .056 .00376337685707908
5 0 0 -1 -1 0 0 50 366 470 0 358 370 336 0 +-.001816052228494905 .056 .003763376
857079085 1 0 0 0 0 -1 50 336 469 0 137 366 333 0 +-.001816052228494905 .056 .00
1763376857079085 0 0 1 1 0 0 17 25 0 23 21 36 110 157 134 0 155 -17 36 0 23 25 2
4 22 32 129 0 157 +17 157 0 304 34 155 22 25 134 0 0 +17 155 0 304 157 139 110 3
73 153 0 0 +15 304 383 0 34 256 0 17 139 0 304 155 34 113 118 140 0 0 +17 373 0
 365 138 26 113 155 153 0 139 -15 365 455 0 373 358 0 17 138 0 365 28 373 120 11
5 142 0 144 -17 26 0 365 373 28 110 21 27 0 25 +17 28 0 365 26 138 10 144 145 0
 131 +17 131 0 130 144 124 10 24 147 0 0 -17 24 0 23 36 21 102 131 147 0 32 +17
 115 0 136 118 122 113 138 142 0 373 +17 34 0 304 139 157 116 29 35 0 0 +83 3 36
8 .792156862745098 .819607843137255 .933333333333333 81 1 359 592 350 127 0 331
 330 355 374 83 3 361 .792156862745098 .819607843137255 .933333333333333 81 1 33
1 643 269 127 359 0 328 334 375 81 1 330 591 350 327 0 328 376 359 377 83 3 374
 .792156862745098 .819607843137255 .933333333333333 81 1 376 590 350 321 0 334 3
78 330 379 83 3 377 .792156862745098 .819607843137255 .933333333333333 81 1 334
 644 269 321 376 0 331 339 380 81 1 378 589 350 318 0 339 381 376 382 83 3 379 .
792156862745098 .819607843137255 .933333333333333 81 1 339 645 269 318 378 0 334
 341 383 81 1 381 588 350 324 0 341 352 378 384 83 3 382 .792156862745098 .81960
7843137255 .933333333333333 81 1 341 646 269 324 381 0 339 343 385 81 1 352 587
 350 302 0 343 345 381 386 83 3 384 .792156862745098 .819607843137255 .933333333
333333 83 3 386 .792156862745098 .819607843137255 .933333333333333 82 1 385 1159
200871 82 1 383 1158938727 82 1 380 1158676583 82 1 375 1170866279 82 1 354 1146
683495 81 1 351 585 350 290 0 293 292 345 387 83 3 353 .792156862745098 .8196078
43137255 .933333333333333 81 1 293 641 269 290 351 0 288 328 388 81 1 292 584 35
0 283 0 288 287 351 389 83 3 387 .792156862745098 .819607843137255 .933333333333
333 81 1 287 583 350 260 0 286 390 292 391 83 3 389 .792156862745098 .8196078431
37255 .933333333333333 81 1 390 582 350 250 0 271 270 287 392 83 3 391 .79215686
2745098 .819607843137255 .933333333333333 81 1 271 635 269 250 390 0 268 274 393
 81 1 270 581 350 267 0 268 394 390 395 83 3 392 .792156862745098 .8196078431372
55 .933333333333333 81 1 394 580 350 14 0 274 396 270 397 83 3 395 .792156862745
098 .819607843137255 .933333333333333 81 1 274 636 269 14 394 0 271 275 398 81 1
 396 579 350 256 0 278 277 394 399 83 3 397 .792156862745098 .819607843137255 .9
33333333333333 81 1 278 638 269 256 396 0 275 286 400 81 1 277 578 350 12 0 275
 0 396 401 83 3 399 .792156862745098 .819607843137255 .933333333333333 83 3 401
 .792156862745098 .819607843137255 .933333333333333 82 1 400 1194917991 82 1 398
 1182531687 82 1 393 1182007399 82 1 388 1147207783 79 14 349 SWEntUnchanged82 1
 332 1158414439 82 1 294 1147469927 82 1 289 1181745255 82 1 279 1196752999 82 1
 272 1182269543 19 13 95 0 1 0 8 4 S0 74 4 CI16 index_map_offset0 0 1 dCCZ20 11
 2 0 0 362 367 0 0 0 0 0 0 0 0 0 0 0 0 0 0 0 0 0 0 1 0 
