**ABCDEFGHIJKLMNOPQRSTUVWXYZabcdefghijklmnopqrstuvwxyz**************************
**PARASOLID !"#$%&'()*+,-./:;<=>?@[\]^_`{|}~0123456789**************************
**PART1;
MC=AMD64;
MC_MODEL=Intel64 Family 6 Model 60 Stepping 3, GenuineIntel;
MC_ID=unknown;
OS=Windows_NT;
OS_RELEASE=unknown;
FRU=Parasolid Version 29.0, build 195, 12- 2-2016;
APPL=SOLIDWORKS 2017-2017033;
SITE=;
USER=unknown;
FORMAT=text;
GUISE=transmit;
KEY=CFD SECTION 1;
FILE=CFD SECTION 1.x_t;
DATE=Fri Mar 30 17:02:21 2018;
**PART2;
SCH=SCH_2900195_28101;
USFLD_SIZE=0;
**PART3;
**END_OF_HEADER*****************************************************************
T51 : TRANSMIT FILE created by modeller version 290019523 SCH_2900195_28101_1300
6203 0 10 19 CCCCCCCI4 mesh1006 0 I8 polyline1008 0 CCCCCCCCCCZ1 7 2 3 0 0 0 0 0
 0 0 1e3 1e-8 0 0 0 1 0 1 4 81 255 2 2 7 5 1 0 0 0 0 0 0 70 11 CI9 list_type0 0
 1 uI10 notransmit0 0 1 lCCCDCCDI12 finger_index0 0 1 dI12 finger_block1012 0 CZ
3 0 4 T1 0 0 1 20 1 6 6 11 255 4 5 0 1 7 8 1 9 0 0 0 12 33 CCCCCCI4 mesh1006 0 I
8 polyline1008 0 CCCCCCCDI5 owner1040 0 CCCCCCI13 boundary_mesh1006 0 I17 bounda
ry_polyline1008 0 CCCA16 index_map_offset0 0 1 dA9 index_map82 0 A17 node_id_ind
ex_map82 0 A20 schema_embedding_map82 0 A5 child12 0 A14 lowest_node_id0 0 1 dZ7
 171 10 11 0 0 0 0 0 0 1e3 1e-8 4 12 0 1 0 1 1 13 14 15 16 0 0 17 18 19 0 0 0 0
 0 0 100 255 8 6 4 0 0 1 0 0 0 1 0 0 0 1 0 0 0 1 0 ?11 9 3 0 1 12 20 1 21 4 0 0
 12 12 171 22 23 0 0 0 0 0 0 1e3 1e-8 9 24 7 1 0 1 1 25 26 27 28 0 0 29 30 31 0
 0 0 0 0 0 100 20 4 9 0 0 1 0 0 0 1 0 0 0 1 0 0 0 1 0 ?11 21 1 0 1 24 32 1 0 9 0
 0 12 24 171 33 34 0 0 0 0 0 0 1e3 1e-8 21 35 12 1 0 1 1 36 37 38 39 0 0 40 41 4
2 0 0 0 0 0 0 100 32 2 21 0 0 1 0 0 0 1 0 0 0 1 0 0 0 1 0 ?81 1 33 171 43 24 0 0
 0 0 0 70 34 0 4 T24 0 0 3 20 1 44 44 13 255 36 94 0 24 0 45 0 0 46 0 50 255 37
 89 0 45 47 0 0 +.004 .05598 -.002 -1 0 0 0 0 1 30 255 38 93 0 48 49 0 0 +.004 .
05598 -.002 0 -1 0 29 255 39 70 0 50 51 0 .004 0 0 19 8 CCCCCCCA5 owner12 0 Z40
 28 0 24 46 0 52 V0 16 255 41 74 0 ?53 0 54 55 0 0 24 18 255 42 25 0 56 0 57 58
 ?24 17 255 56 0 59 60 61 42 53 41 0 62 -18 57 22 0 63 42 64 65 ?24 29 58 27 0 4
2 65 66 .004 .05598 0 29 65 24 0 57 67 58 .005 .05598 0 29 66 73 0 68 58 69 .004
 0 -.002 18 68 64 0 70 71 0 66 ?24 29 69 72 0 71 66 51 .005 0 -.002 18 71 63 0 7
2 73 68 69 ?24 29 51 71 0 73 69 39 .005 0 0 18 73 62 0 74 50 71 51 ?24 17 74 0 7
5 76 77 73 63 54 0 78 +18 50 61 0 53 79 73 39 ?24 17 53 0 80 81 82 50 56 41 0 61
 +18 79 16 0 83 64 50 84 ?24 17 83 0 85 86 87 79 70 48 0 88 -18 64 19 0 89 57 79
 67 ?24 29 84 18 0 79 0 67 .004 .05598 -.002 29 67 21 0 64 84 65 .005 .05598 -.0
02 17 89 0 75 77 76 64 72 90 0 91 -15 255 75 80 0 76 92 0 17 77 0 75 74 89 57 91
 93 0 94 +17 76 0 75 89 74 71 78 95 0 96 -17 72 0 85 87 86 71 89 90 0 76 +16 90
 76 0 ?72 54 48 49 0 0 24 17 91 0 97 88 94 64 77 93 0 86 -15 97 3 0 62 98 0 17 8
8 0 97 62 91 79 86 99 0 60 -17 94 0 97 91 62 57 82 100 0 0 -16 93 10 0 ?77 100 9
9 101 0 0 24 17 86 0 85 72 83 64 88 99 0 0 +15 85 82 0 87 102 0 16 99 7 0 ?86 93
 103 104 0 0 24 16 103 4 0 ?60 99 105 106 0 0 24 30 104 8 0 99 106 101 0 +.004 .
05598 -.002 1 0 0 30 106 5 0 103 0 104 0 +.004 .05598 -.002 0 0 -1 30 101 11 0 9
3 104 107 0 +.005 .05598 -.002 0 0 1 30 107 14 0 100 101 108 0 +.004 .05598 0 -1
 0 0 16 100 13 0 ?82 48 93 107 0 0 24 30 108 69 0 109 107 110 0 +.004 0 -.002 0
 0 -1 16 109 57 0 ?111 112 0 108 0 0 24 30 110 68 0 112 108 113 0 +.004 0 -.002
 1 0 0 16 112 53 0 ?96 95 109 110 0 0 24 30 113 67 0 95 110 114 0 +.005 0 -.002
 0 0 1 16 95 49 0 ?78 105 112 113 0 0 24 30 114 66 0 105 113 55 0 +.004 0 0 -1 0
 0 16 105 45 0 ?115 103 95 114 0 0 24 30 55 90 0 41 114 116 0 +.004 .05598 0 0 -
1 0 30 116 91 0 54 55 49 0 +.005 .05598 0 0 -1 0 16 54 75 0 ?74 41 90 116 0 0 24
 30 49 92 0 90 116 38 0 +.005 .05598 -.002 0 -1 0 17 115 0 117 111 78 50 81 105
 0 0 +15 117 44 0 111 118 0 17 111 0 117 96 115 68 61 109 0 0 +17 78 0 117 115 9
6 73 76 95 0 81 +17 81 0 80 63 53 73 115 105 0 0 -15 80 78 0 81 119 0 17 63 0 80
 82 81 57 74 54 0 77 -17 82 0 80 53 63 42 94 100 0 0 +14 255 119 79 120 ?92 45 8
0 36 121 +0 0 92 45 52 81 1 120 165 122 119 123 0 0 124 125 14 92 81 124 ?102 11
9 75 36 126 +0 0 102 119 52 14 45 85 127 ?119 0 59 36 37 +0 0 119 0 52 50 121 86
 0 119 128 126 0 +.004 .05598 0 0 0 1 1 0 0 13 52 29 0 0 0 0 0 0 40 45 50 128 65
 0 118 129 121 0 +0 0 0 0 1 0 0 0 1 50 126 87 0 92 121 47 0 +.005 .05598 -.002 1
 0 0 0 0 -1 50 47 88 0 102 126 37 0 +.004 .05598 -.002 0 0 -1 -1 0 0 14 102 83 1
30 ?98 92 85 36 47 +0 0 98 92 52 81 1 130 168 122 102 131 0 127 132 133 14 98 1
 132 ?118 102 97 36 129 +0 0 118 102 52 81 1 132 169 122 98 134 0 130 135 136 14
 118 43 135 ?0 98 117 36 128 -0 0 0 98 52 50 129 2 0 98 0 128 0 +0 .05598 0 0 1
 0 0 0 1 81 1 135 170 122 118 137 0 132 0 138 80 255 1 122 139 140 9000 1 1 1 1
 1 1 1 1 0 FFFFTFTFFFFFFF1 81 1 137 150 141 118 0 135 134 0 142 82 255 1 138 136
9178259 80 1 141 0 143 8001 0 0 0 0 3 5 0 0 0 FFFFTFTFFFFFFF2 81 1 134 149 141 9
8 0 132 131 137 144 83 255 3 142 .792156862745098 .819607843137255 .933333333333
333 81 1 131 148 141 102 0 130 145 134 146 83 3 144 .792156862745098 .8196078431
37255 .933333333333333 81 1 145 147 141 92 0 124 123 131 147 83 3 146 .792156862
745098 .819607843137255 .933333333333333 81 1 124 166 122 92 145 0 120 127 148 8
1 1 123 146 141 119 0 120 149 145 150 83 3 147 .792156862745098 .819607843137255
 .933333333333333 81 1 149 145 141 45 0 127 0 123 151 83 3 150 .792156862745098
 .819607843137255 .933333333333333 81 1 127 167 122 45 149 0 124 130 152 83 3 15
1 .792156862745098 .819607843137255 .933333333333333 82 1 152 1370488979 82 1 14
8 1370226835 79 255 15 143 SDL/TYSA_COLOUR79 14 140 SWEntUnchanged82 1 136 13635
42163 82 1 133 1370357907 15 59 84 0 61 45 0 17 61 0 59 56 70 50 111 109 0 115 -
17 70 0 59 61 60 68 83 48 0 87 +17 60 0 59 70 56 79 62 103 0 0 +16 48 77 0 ?70 9
0 100 38 0 0 24 17 87 0 85 83 72 68 96 112 0 111 -17 96 0 117 78 111 71 87 112 0
 0 +17 62 0 97 94 88 42 60 103 0 82 -82 1 125 1370095763 19 46 95 0 24 0 40 36 S
0 74 4 CI16 index_map_offset0 0 1 dCCZ20 44 3 0 0 135 137 33 0 0 0 0 0 0 0 0 0 0
 0 0 0 0 0 0 0 80 1 43 153 154 8017 0 0 0 0 0 0 0 0 0 TTTTTTTTTTTTTF3 79 13 154
 SDL/TYSA_NAME81 1 22 171 43 12 0 0 0 0 0 70 23 0 4 T12 0 0 3 20 1 155 155 13 25
 94 0 12 0 156 0 0 157 0 50 26 89 0 156 158 0 0 +.002 .05598 -.002 -1 0 0 0 0 1
 30 27 93 0 159 160 0 0 +.002 .05598 -.002 0 -1 0 29 28 70 0 161 162 0 .002 0 0
 19 29 28 0 12 157 0 163 V0 16 30 74 0 ?164 0 165 166 0 0 12 18 31 25 0 167 0 16
8 169 ?12 17 167 0 170 171 172 31 164 30 0 173 -18 168 22 0 174 31 175 176 ?12 2
9 169 27 0 31 176 177 .002 .05598 0 29 176 24 0 168 178 169 .003 .05598 0 29 177
 73 0 179 169 180 .002 0 -.002 18 179 64 0 181 182 0 177 ?12 29 180 72 0 182 177
 162 .003 0 -.002 18 182 63 0 183 184 179 180 ?12 29 162 71 0 184 180 28 .003 0
 0 18 184 62 0 185 161 182 162 ?12 17 185 0 186 187 188 184 174 165 0 189 +18 16
1 61 0 164 190 184 28 ?12 17 164 0 191 192 193 161 167 30 0 172 +18 190 16 0 194
 175 161 195 ?12 17 194 0 196 197 198 190 181 159 0 199 -18 175 19 0 200 168 190
 178 ?12 29 195 18 0 190 0 178 .002 .05598 -.002 29 178 21 0 175 195 176 .003 .0
5598 -.002 17 200 0 186 188 187 175 183 201 0 202 -15 186 80 0 187 203 0 17 188
 0 186 185 200 168 202 204 0 205 +17 187 0 186 200 185 182 189 206 0 207 -17 183
 0 196 198 197 182 200 201 0 187 +16 201 76 0 ?183 165 159 160 0 0 12 17 202 0 2
08 199 205 175 188 204 0 197 -15 208 3 0 173 209 0 17 199 0 208 173 202 190 197
 210 0 171 -17 205 0 208 202 173 168 193 211 0 0 -16 204 10 0 ?188 211 210 212 0
 0 12 17 197 0 196 183 194 175 199 210 0 0 +15 196 82 0 198 213 0 16 210 7 0 ?19
7 204 214 215 0 0 12 16 214 4 0 ?171 210 216 217 0 0 12 30 215 8 0 210 217 212 0
 +.002 .05598 -.002 1 0 0 30 217 5 0 214 0 215 0 +.002 .05598 -.002 0 0 -1 30 21
2 11 0 204 215 218 0 +.003 .05598 -.002 0 0 1 30 218 14 0 211 212 219 0 +.002 .0
5598 0 -1 0 0 16 211 13 0 ?193 159 204 218 0 0 12 30 219 69 0 220 218 221 0 +.00
2 0 -.002 0 0 -1 16 220 57 0 ?222 223 0 219 0 0 12 30 221 68 0 223 219 224 0 +.0
02 0 -.002 1 0 0 16 223 53 0 ?207 206 220 221 0 0 12 30 224 67 0 206 221 225 0 +
.003 0 -.002 0 0 1 16 206 49 0 ?189 216 223 224 0 0 12 30 225 66 0 216 224 166 0
 +.002 0 0 -1 0 0 16 216 45 0 ?226 214 206 225 0 0 12 30 166 90 0 30 225 227 0 +
.002 .05598 0 0 -1 0 30 227 91 0 165 166 160 0 +.003 .05598 0 0 -1 0 16 165 75 0
 ?185 30 201 227 0 0 12 30 160 92 0 201 227 27 0 +.003 .05598 -.002 0 -1 0 17 22
6 0 228 222 189 161 192 216 0 0 +15 228 44 0 222 229 0 17 222 0 228 207 226 179
 172 220 0 0 +17 189 0 228 226 207 184 187 206 0 192 +17 192 0 191 174 164 184 2
26 216 0 0 -15 191 78 0 192 230 0 17 174 0 191 193 192 168 185 165 0 188 -17 193
 0 191 164 174 31 205 211 0 0 +14 230 79 231 ?203 156 191 25 232 +0 0 203 156 16
3 81 1 231 165 122 230 233 0 0 234 235 14 203 81 234 ?213 230 186 25 236 +0 0 21
3 230 163 14 156 85 237 ?230 0 170 25 26 +0 0 230 0 163 50 232 86 0 230 238 236
 0 +.002 .05598 0 0 0 1 1 0 0 13 163 29 0 0 0 0 0 0 29 156 50 238 65 0 229 239 2
32 0 +0 0 0 0 1 0 0 0 1 50 236 87 0 203 232 158 0 +.003 .05598 -.002 1 0 0 0 0 -
1 50 158 88 0 213 236 26 0 +.002 .05598 -.002 0 0 -1 -1 0 0 14 213 83 240 ?209 2
03 196 25 158 +0 0 209 203 163 81 1 240 168 122 213 241 0 237 242 243 14 209 1 2
42 ?229 213 208 25 239 +0 0 229 213 163 81 1 242 169 122 209 244 0 240 245 246 1
4 229 43 245 ?0 209 228 25 238 -0 0 0 209 163 50 239 2 0 209 0 238 0 +0 .05598 0
 0 1 0 0 0 1 81 1 245 170 122 229 247 0 242 0 248 81 1 247 150 141 229 0 245 244
 0 249 82 1 248 1380384915 81 1 244 149 141 209 0 242 241 247 250 83 3 249 .7921
56862745098 .819607843137255 .933333333333333 81 1 241 148 141 213 0 240 251 244
 252 83 3 250 .792156862745098 .819607843137255 .933333333333333 81 1 251 147 14
1 203 0 234 233 241 253 83 3 252 .792156862745098 .819607843137255 .933333333333
333 81 1 234 166 122 203 251 0 231 237 254 81 1 233 146 141 230 0 231 255 251 25
6 83 3 253 .792156862745098 .819607843137255 .933333333333333 81 1 255 145 141 1
56 0 237 0 233 257 83 3 256 .792156862745098 .819607843137255 .933333333333333 8
1 1 237 167 122 156 255 0 234 240 258 83 3 257 .792156862745098 .819607843137255
 .933333333333333 82 1 258 1381695635 82 1 254 1381433491 82 1 246 1374748819 82
 1 243 1381564563 15 170 84 0 172 156 0 17 172 0 170 167 181 161 222 220 0 226 -
17 181 0 170 172 171 179 194 159 0 198 +17 171 0 170 181 167 190 173 214 0 0 +16
 159 77 0 ?181 201 211 27 0 0 12 17 198 0 196 194 183 179 207 223 0 222 -17 207
 0 228 189 222 182 198 223 0 0 +17 173 0 208 205 199 31 171 214 0 193 -82 1 235
 1381302419 19 157 95 0 12 0 29 25 S0 74 20 155 3 0 0 245 247 22 0 0 0 0 0 0 0 0
 0 0 0 0 0 0 0 0 0 81 1 10 171 43 7 0 0 0 0 0 70 11 0 4 T7 0 0 3 20 1 259 259 13
 13 94 0 7 0 260 0 0 261 0 50 14 89 0 260 262 0 0 +0 .05598 -.002 -1 0 0 0 0 1 3
0 15 93 0 263 264 0 0 +0 .05598 -.002 0 -1 0 29 16 70 0 265 266 0 0 0 0 19 17 28
 0 7 261 0 267 V0 16 18 74 0 ?268 0 269 270 0 0 7 18 19 25 0 271 0 272 273 ?7 17
 271 0 274 275 276 19 268 18 0 277 -18 272 22 0 278 19 279 280 ?7 29 273 27 0 19
 280 281 0 .05598 0 29 280 24 0 272 282 273 .001 .05598 0 29 281 73 0 283 273 28
4 0 0 -.002 18 283 64 0 285 286 0 281 ?7 29 284 72 0 286 281 266 .001 0 -.002 18
 286 63 0 287 288 283 284 ?7 29 266 71 0 288 284 16 .001 0 0 18 288 62 0 289 265
 286 266 ?7 17 289 0 290 291 292 288 278 269 0 293 +18 265 61 0 268 294 288 16 ?
7 17 268 0 295 296 297 265 271 18 0 276 +18 294 16 0 298 279 265 299 ?7 17 298 0
 300 301 302 294 285 263 0 303 -18 279 19 0 304 272 294 282 ?7 29 299 18 0 294 0
 282 0 .05598 -.002 29 282 21 0 279 299 280 .001 .05598 -.002 17 304 0 290 292 2
91 279 287 305 0 306 -15 290 80 0 291 307 0 17 292 0 290 289 304 272 306 308 0 3
09 +17 291 0 290 304 289 286 293 310 0 311 -17 287 0 300 302 301 286 304 305 0 2
91 +16 305 76 0 ?287 269 263 264 0 0 7 17 306 0 312 303 309 279 292 308 0 301 -1
5 312 3 0 277 313 0 17 303 0 312 277 306 294 301 314 0 275 -17 309 0 312 306 277
 272 297 315 0 0 -16 308 10 0 ?292 315 314 316 0 0 7 17 301 0 300 287 298 279 30
3 314 0 0 +15 300 82 0 302 317 0 16 314 7 0 ?301 308 318 319 0 0 7 16 318 4 0 ?2
75 314 320 321 0 0 7 30 319 8 0 314 321 316 0 +0 .05598 -.002 1 0 0 30 321 5 0 3
18 0 319 0 +0 .05598 -.002 0 0 -1 30 316 11 0 308 319 322 0 +.001 .05598 -.002 0
 0 1 30 322 14 0 315 316 323 0 +0 .05598 0 -1 0 0 16 315 13 0 ?297 263 308 322 0
 0 7 30 323 69 0 324 322 325 0 +0 0 -.002 0 0 -1 16 324 57 0 ?326 327 0 323 0 0
 7 30 325 68 0 327 323 328 0 +0 0 -.002 1 0 0 16 327 53 0 ?311 310 324 325 0 0 7
 30 328 67 0 310 325 329 0 +.001 0 -.002 0 0 1 16 310 49 0 ?293 320 327 328 0 0
 7 30 329 66 0 320 328 270 0 +0 0 0 -1 0 0 16 320 45 0 ?330 318 310 329 0 0 7 30
 270 90 0 18 329 331 0 +0 .05598 0 0 -1 0 30 331 91 0 269 270 264 0 +.001 .05598
 0 0 -1 0 16 269 75 0 ?289 18 305 331 0 0 7 30 264 92 0 305 331 15 0 +.001 .0559
8 -.002 0 -1 0 17 330 0 332 326 293 265 296 320 0 0 +15 332 44 0 326 333 0 17 32
6 0 332 311 330 283 276 324 0 0 +17 293 0 332 330 311 288 291 310 0 296 +17 296
 0 295 278 268 288 330 320 0 0 -15 295 78 0 296 334 0 17 278 0 295 297 296 272 2
89 269 0 292 -17 297 0 295 268 278 19 309 315 0 0 +14 334 79 335 ?307 260 295 13
 336 +0 0 307 260 267 81 1 335 165 122 334 337 0 0 338 339 14 307 81 338 ?317 33
4 290 13 340 +0 0 317 334 267 14 260 85 341 ?334 0 274 13 14 +0 0 334 0 267 50 3
36 86 0 334 342 340 0 +0 .05598 0 0 0 1 1 0 0 13 267 29 0 0 0 0 0 0 17 260 50 34
2 65 0 333 343 336 0 +0 0 0 0 1 0 0 0 1 50 340 87 0 307 336 262 0 +.001 .05598 -
.002 1 0 0 0 0 -1 50 262 88 0 317 340 14 0 +0 .05598 -.002 0 0 -1 -1 0 0 14 317
 83 344 ?313 307 300 13 262 +0 0 313 307 267 81 1 344 168 122 317 345 0 341 346
 347 14 313 1 346 ?333 317 312 13 343 +0 0 333 317 267 81 1 346 169 122 313 348
 0 344 349 350 14 333 43 349 ?0 313 332 13 342 -0 0 0 313 267 50 343 2 0 313 0 3
42 0 +0 .05598 0 0 1 0 0 0 1 81 1 349 170 122 333 351 0 346 0 352 81 1 351 150 1
41 333 0 349 348 0 353 82 1 352 1391526035 81 1 348 149 141 313 0 346 345 351 35
4 83 3 353 .792156862745098 .819607843137255 .933333333333333 81 1 345 148 141 3
17 0 344 355 348 356 83 3 354 .792156862745098 .819607843137255 .933333333333333
 81 1 355 147 141 307 0 338 337 345 357 83 3 356 .792156862745098 .8196078431372
55 .933333333333333 81 1 338 166 122 307 355 0 335 341 358 81 1 337 146 141 334
 0 335 359 355 360 83 3 357 .792156862745098 .819607843137255 .933333333333333 8
1 1 359 145 141 260 0 341 0 337 361 83 3 360 .792156862745098 .819607843137255 .
933333333333333 81 1 341 167 122 260 359 0 338 344 362 83 3 361 .792156862745098
 .819607843137255 .933333333333333 82 1 362 1392836755 82 1 358 1392574611 82 1
 350 1385889939 82 1 347 1392705683 15 274 84 0 276 260 0 17 276 0 274 271 285 2
65 326 324 0 330 -17 285 0 274 276 275 283 298 263 0 302 +17 275 0 274 285 271 2
94 277 318 0 0 +16 263 77 0 ?285 305 315 15 0 0 7 17 302 0 300 298 287 283 311 3
27 0 326 -17 311 0 332 293 326 286 302 327 0 0 +17 277 0 312 309 303 19 275 318
 0 297 -82 1 339 1392443539 19 261 95 0 7 0 17 13 S0 74 20 259 3 0 0 349 351 10
 0 0 0 0 0 0 0 0 0 0 0 0 0 0 0 0 0 74 20 6 1 0 0 2 0 0 0 0 0 0 0 0 0 0 0 0 0 0 0
 0 0 0 0 80 2 5 363 364 9000 0 0 0 0 3 5 0 0 0 TFFFFFFFFFFFFF9 1 79 18 364 MULTI
_BODY_ID_20011 0 
