**ABCDEFGHIJKLMNOPQRSTUVWXYZabcdefghijklmnopqrstuvwxyz**************************
**PARASOLID !"#$%&'()*+,-./:;<=>?@[\]^_`{|}~0123456789**************************
**PART1;
MC=AMD64;
MC_MODEL=Intel64 Family 6 Model 60 Stepping 3, GenuineIntel;
MC_ID=unknown;
OS=Windows_NT;
OS_RELEASE=unknown;
FRU=Parasolid Version 29.0, build 195, 12- 2-2016;
APPL=SOLIDWORKS 2017-2017033;
SITE=;
USER=unknown;
FORMAT=text;
GUISE=transmit;
KEY=SECTION 1;
FILE=SECTION 1.x_t;
DATE=Mon Apr 02 17:14:14 2018;
**PART2;
SCH=SCH_2900195_28101;
USFLD_SIZE=0;
**PART3;
**END_OF_HEADER*****************************************************************
T51 : TRANSMIT FILE created by modeller version 290019523 SCH_2900195_28101_1300
6203 0 10 19 CCCCCCCI4 mesh1006 0 I8 polyline1008 0 CCCCCCCCCCZ1 9 2 3 0 0 0 0 0
 0 0 1e3 1e-8 0 0 0 1 0 1 4 81 255 1 2 9 5 1 0 0 0 0 0 70 11 CI9 list_type0 0 1
 uI10 notransmit0 0 1 lCCCDCCDI12 finger_index0 0 1 dI12 finger_block1012 0 CZ3
 0 4 T1 0 0 1 20 1 6 6 11 255 4 7 0 1 7 8 1 9 0 9 0 12 33 CCCCCCI4 mesh1006 0 I8
 polyline1008 0 CCCCCCCDI5 owner1040 0 CCCCCCI13 boundary_mesh1006 0 I17 boundar
y_polyline1008 0 CCCA16 index_map_offset0 0 1 dA9 index_map82 0 A17 node_id_inde
x_map82 0 A20 schema_embedding_map82 0 A5 child12 0 A14 lowest_node_id0 0 1 dZ7
 167 10 11 0 0 0 0 0 0 1e3 1e-8 4 12 0 1 0 1 1 13 14 15 16 0 0 17 18 19 0 0 0 0
 0 0 100 255 8 8 4 0 0 1 0 0 0 -3491481338843135e-30 -1 0 1 -3491481338843135e-3
0 .0273995989905357 .01267834404900834 .0174438638939577 1 3 ?11 9 5 0 1 7 20 1
 21 4 21 4 100 20 6 9 0 0 1 0 0 0 -3491481338843135e-30 -1 0 1 -3491481338843135
e-30 .0293995989905357 .01267834404900834 .0174438638939577 1 3 ?11 21 3 0 1 7 2
2 1 23 9 0 9 100 22 4 21 0 0 1 0 0 0 -3491481338843135e-30 -1 0 1 -3491481338843
135e-30 .0313995989905357 .01267834404900834 .0174438638939577 1 3 ?11 23 1 0 1
 12 24 1 0 21 0 0 12 12 636 25 26 0 0 0 0 0 0 1e3 1e-8 23 27 7 1 0 1 1 28 29 30
 31 0 0 32 33 34 0 0 0 0 0 0 100 24 2 23 0 0 1 0 0 0 -3491481338843135e-30 -1 0
 1 -3491481338843135e-30 .0332156512190306 .01644172090608745 .0174438638939577
 1 3 ?81 1 25 636 5 12 0 0 0 0 35 70 26 0 4 T12 0 0 3 20 1 36 36 13 255 28 94 0
 12 0 37 0 0 38 0 50 255 29 89 0 39 40 0 0 +.000183947771505097 .056 .0007633768
57079086 -1 0 0 0 0 1 30 255 30 93 0 33 41 0 0 +.000183947771505097 .056 .000763
376857079086 0 -1 0 29 255 31 392 0 34 42 0 -.001816052228494905 .056 .003763376
857079085 19 8 CCCCCCCA5 owner12 0 Z32 28 0 12 38 0 43 V0 16 255 33 77 0 ?44 0 4
5 30 0 0 12 18 255 34 390 0 46 0 47 31 ?12 17 255 46 0 48 49 50 34 51 52 0 53 -1
8 47 367 0 54 34 55 42 ?12 17 54 0 56 57 58 47 59 60 0 61 -18 55 260 0 62 47 63
 64 ?12 29 42 369 0 47 64 31 -.000816052228494903 0 .003763376857079085 29 64 26
2 0 55 65 42 -.003816052228494905 .056 .003763376857079085 29 65 239 0 63 66 64
 -.002816052228494905 0 .003763376857079085 18 63 237 0 67 55 68 65 ?12 29 66 13
2 0 68 69 65 -.0048160522284949 .056 .001763376857079085 18 68 130 0 70 63 71 66
 ?12 29 69 109 0 71 72 66 -.0058160522284949 0 .001763376857079085 18 71 107 0 7
3 68 74 69 ?12 29 72 70 0 75 76 69 .000183947771505097 0 .00476337685707909 18 7
5 61 0 77 78 79 72 ?12 29 76 71 0 79 80 72 -.0068160522284949 0 .004763376857079
09 18 79 62 0 81 75 82 76 ?12 29 80 72 0 82 83 76 -.0068160522284949 0 .00076337
6857079086 18 82 63 0 84 79 85 80 ?12 29 83 73 0 85 86 80 .000183947771505097 0
 .000763376857079086 18 85 64 0 87 82 88 83 ?12 29 86 27 0 74 89 83 .00018394777
1505097 .056 .00476337685707909 18 74 25 0 90 71 91 86 ?12 29 89 24 0 91 92 86 -
.0068160522284949 .056 .00476337685707909 18 91 22 0 93 74 94 89 ?12 29 92 21 0
 94 95 89 -.0068160522284949 .056 .000763376857079086 18 94 19 0 96 91 78 92 ?12
 29 95 18 0 78 97 92 .000183947771505097 .056 .000763376857079086 18 78 16 0 98
 94 75 95 ?12 29 97 227 0 99 100 95 -.0048160522284949 0 .001763376857079085 18
 99 178 0 101 102 103 97 ?12 29 100 228 0 103 104 97 -.0048160522284949 0 .00376
3376857079085 18 103 176 0 105 99 106 100 ?12 29 104 229 0 106 107 100 -.0058160
522284949 0 .003763376857079085 18 106 183 0 108 103 109 104 ?12 29 107 230 0 88
 110 104 -.0058160522284949 .056 .001763376857079085 18 88 182 0 111 85 112 107
 ?12 29 110 232 0 112 113 107 -.0048160522284949 .056 .003763376857079085 18 112
 180 0 114 88 102 110 ?12 29 113 233 0 102 115 110 -.0058160522284949 .056 .0037
63376857079085 18 102 177 0 116 112 99 113 ?12 29 115 357 0 117 118 113 -.003816
052228494905 0 .003763376857079085 18 117 308 0 119 120 121 115 ?12 29 118 358 0
 121 122 115 -.003816052228494905 0 .001763376857079085 18 121 306 0 123 117 124
 118 ?12 29 122 359 0 124 125 118 -.002816052228494905 0 .001763376857079085 18
 124 313 0 126 121 127 122 ?12 29 125 360 0 109 128 122 -.002816052228494905 .05
6 .003763376857079085 18 109 312 0 129 106 130 125 ?12 29 128 362 0 130 131 125
 -.003816052228494905 .056 .001763376857079085 18 130 310 0 132 109 120 128 ?12
 29 131 363 0 120 133 128 -.002816052228494905 .056 .001763376857079085 18 120 3
07 0 134 130 117 131 ?12 29 133 487 0 135 136 131 -.001816052228494905 0 .003763
376857079085 18 135 438 0 51 137 138 133 ?12 29 136 488 0 138 139 133 -.00181605
2228494905 0 .001763376857079085 18 138 436 0 140 135 141 136 ?12 29 139 489 0 1
41 142 136 -.000816052228494903 0 .001763376857079085 18 141 443 0 143 138 0 139
 ?12 29 142 490 0 127 144 139 -.000816052228494903 .056 .003763376857079085 18 1
27 442 0 49 124 145 142 ?12 29 144 492 0 145 146 142 -.001816052228494905 .056 .
001763376857079085 18 145 440 0 147 127 137 144 ?12 29 146 493 0 137 0 144 -.000
816052228494903 .056 .001763376857079085 18 137 437 0 148 145 135 146 ?12 17 148
 0 56 58 57 137 149 150 0 151 +15 255 56 447 0 54 152 0 17 58 0 56 54 148 141 15
1 153 0 59 +17 57 0 56 148 54 127 61 154 0 149 -17 149 0 155 156 157 127 148 150
 0 0 -16 150 424 0 ?148 158 159 160 0 0 12 17 151 0 161 147 143 137 58 153 0 157
 -15 161 451 0 143 162 0 17 147 0 161 140 151 145 157 158 0 163 +17 143 0 161 15
1 140 141 164 165 0 58 -16 153 415 0 ?58 166 167 168 0 0 12 17 157 0 155 149 169
 137 147 158 0 0 -15 155 388 0 157 37 0 17 169 0 155 157 156 145 53 170 0 0 -16
 158 427 0 ?147 170 150 171 0 0 12 16 170 430 0 ?53 172 158 173 0 0 12 30 171 48
4 0 158 160 173 0 +-.001816052228494905 .056 .001763376857079085 -1 0 0 30 160 4
85 0 150 0 171 0 +-.000816052228494903 .056 .003763376857079085 0 0 -1 30 173 48
3 0 170 171 174 0 +-.001816052228494905 .056 .003763376857079085 0 0 1 30 174 48
2 0 172 173 175 0 +-.001816052228494905 .056 .003763376857079085 1 0 0 16 172 43
3 0 ?49 154 170 174 0 0 12 30 175 481 0 60 174 176 0 +-.000816052228494903 0 .00
3763376857079085 0 0 -1 16 60 408 0 ?59 165 0 175 0 0 12 30 176 480 0 165 175 17
7 0 +-.001816052228494905 0 .001763376857079085 -1 0 0 16 165 412 0 ?164 178 60
 176 0 0 12 30 177 479 0 178 176 179 0 +-.001816052228494905 0 .0037633768570790
85 0 0 1 16 178 416 0 ?180 159 165 177 0 0 12 30 179 478 0 159 177 181 0 +-.0018
16052228494905 0 .003763376857079085 1 0 0 16 159 420 0 ?182 150 178 179 0 0 12
 30 181 477 0 154 179 183 0 +-.000816052228494903 .056 .003763376857079085 0 -1
 0 16 154 411 0 ?61 52 172 181 0 0 12 30 183 476 0 52 181 184 0 +-.0018160522284
94905 .056 .003763376857079085 0 -1 0 16 52 423 0 ?51 167 154 183 0 0 12 30 184
 475 0 167 183 168 0 +-.001816052228494905 .056 .001763376857079085 0 -1 0 16 16
7 419 0 ?140 153 52 184 0 0 12 30 168 474 0 153 184 185 0 +-.000816052228494903
 .056 .001763376857079085 0 -1 0 30 185 355 0 186 168 187 0 +-.00281605222849490
5 .056 .003763376857079085 0 0 -1 16 186 294 0 ?134 188 189 185 0 0 12 30 187 35
4 0 188 185 190 0 +-.003816052228494905 .056 .001763376857079085 -1 0 0 16 188 2
97 0 ?132 191 186 187 0 0 12 30 190 353 0 191 187 192 0 +-.003816052228494905 .0
56 .003763376857079085 0 0 1 16 191 300 0 ?193 194 188 190 0 0 12 30 192 352 0 1
94 190 195 0 +-.003816052228494905 .056 .003763376857079085 1 0 0 16 194 303 0 ?
129 196 191 192 0 0 12 30 195 351 0 166 192 197 0 +-.002816052228494905 0 .00376
3376857079085 0 0 -1 16 166 278 0 ?198 199 153 195 0 0 12 30 197 350 0 199 195 2
00 0 +-.003816052228494905 0 .001763376857079085 -1 0 0 16 199 282 0 ?201 202 16
6 197 0 0 12 30 200 349 0 202 197 203 0 +-.003816052228494905 0 .003763376857079
085 0 0 1 16 202 286 0 ?204 189 199 200 0 0 12 30 203 348 0 189 200 205 0 +-.003
816052228494905 0 .003763376857079085 1 0 0 16 189 290 0 ?206 186 202 203 0 0 12
 30 205 347 0 196 203 207 0 +-.002816052228494905 .056 .003763376857079085 0 -1
 0 16 196 281 0 ?208 209 194 205 0 0 12 30 207 346 0 209 205 210 0 +-.0038160522
28494905 .056 .003763376857079085 0 -1 0 16 209 293 0 ?119 211 196 207 0 0 12 30
 210 345 0 211 207 212 0 +-.003816052228494905 .056 .001763376857079085 0 -1 0 1
6 211 289 0 ?123 213 209 210 0 0 12 30 212 344 0 213 210 214 0 +-.00281605222849
4905 .056 .001763376857079085 0 -1 0 16 213 285 0 ?215 216 211 212 0 0 12 30 214
 225 0 217 212 218 0 +-.0058160522284949 .056 .003763376857079085 0 0 1 16 217 1
64 0 ?116 219 220 214 0 0 12 30 218 224 0 219 214 221 0 +-.0058160522284949 .056
 .003763376857079085 1 0 0 16 219 167 0 ?114 222 217 218 0 0 12 30 221 223 0 222
 218 223 0 +-.0048160522284949 .056 .003763376857079085 0 0 -1 16 222 170 0 ?224
 225 219 221 0 0 12 30 223 222 0 225 221 226 0 +-.0058160522284949 .056 .0017633
76857079085 -1 0 0 16 225 173 0 ?111 227 222 223 0 0 12 30 226 221 0 216 223 228
 0 +-.0058160522284949 0 .003763376857079085 0 0 1 16 216 148 0 ?229 230 213 226
 0 0 12 30 228 220 0 230 226 231 0 +-.0058160522284949 0 .003763376857079085 1 0
 0 16 230 152 0 ?232 233 216 228 0 0 12 30 231 219 0 233 228 234 0 +-.0048160522
284949 0 .003763376857079085 0 0 -1 16 233 156 0 ?235 220 230 231 0 0 12 30 234
 218 0 220 231 236 0 +-.0058160522284949 0 .001763376857079085 -1 0 0 16 220 160
 0 ?237 217 233 234 0 0 12 30 236 217 0 227 234 238 0 +-.0058160522284949 .056 .
001763376857079085 0 -1 0 16 227 151 0 ?239 240 225 236 0 0 12 30 238 216 0 240
 236 241 0 +-.0048160522284949 .056 .001763376857079085 0 -1 0 16 240 163 0 ?101
 242 227 238 0 0 12 30 241 215 0 242 238 243 0 +-.0048160522284949 .056 .0037633
76857079085 0 -1 0 16 242 159 0 ?105 244 240 241 0 0 12 30 243 214 0 244 241 245
 0 +-.0058160522284949 .056 .003763376857079085 0 -1 0 16 244 155 0 ?246 247 242
 243 0 0 12 30 245 5 0 248 243 249 0 +.000183947771505097 .056 .0007633768570790
86 0 0 -1 16 248 4 0 ?250 251 252 245 0 0 12 30 249 8 0 251 245 253 0 +-.0068160
522284949 .056 .000763376857079086 -1 0 0 16 251 7 0 ?96 254 248 249 0 0 12 30 2
53 11 0 254 249 255 0 +-.0068160522284949 .056 .000763376857079086 0 0 1 16 254
 10 0 ?93 256 251 253 0 0 12 30 255 14 0 256 253 257 0 +-.0068160522284949 .056
 .00476337685707909 1 0 0 16 256 13 0 ?90 258 254 255 0 0 12 30 257 69 0 247 255
 259 0 +.000183947771505097 0 .000763376857079086 0 0 -1 16 247 57 0 ?260 261 24
4 257 0 0 12 30 259 68 0 261 257 262 0 +-.0068160522284949 0 .000763376857079086
 -1 0 0 16 261 53 0 ?84 263 247 259 0 0 12 30 262 67 0 263 259 264 0 +-.00681605
22284949 0 .000763376857079086 0 0 1 16 263 49 0 ?81 252 261 262 0 0 12 30 264 6
6 0 252 262 265 0 +-.0068160522284949 0 .00476337685707909 1 0 0 16 252 45 0 ?77
 248 263 264 0 0 12 30 265 90 0 258 264 266 0 +.000183947771505097 .056 .0047633
7685707909 0 -1 0 16 258 74 0 ?267 268 256 265 0 0 12 30 266 91 0 268 265 41 0 +
-.0068160522284949 .056 .00476337685707909 0 -1 0 16 268 75 0 ?269 45 258 266 0
 0 12 30 41 92 0 45 266 30 0 +-.0068160522284949 .056 .000763376857079086 0 -1 0
 16 45 76 0 ?270 33 268 41 0 0 12 17 270 0 271 81 272 82 273 45 0 274 +15 271 80
 0 81 275 0 17 81 0 271 276 270 79 274 263 0 269 +17 272 0 271 270 276 94 93 254
 0 0 -17 273 0 277 98 84 94 270 45 0 272 -17 274 0 278 87 279 82 81 263 0 0 -15
 278 44 0 280 281 282 17 87 0 278 280 274 85 84 261 0 44 -17 279 0 278 274 280 7
9 77 252 0 0 -17 280 0 278 279 87 75 260 247 0 0 -17 77 0 283 284 269 75 279 252
 0 267 +15 283 78 0 77 285 0 17 284 0 283 286 77 74 267 258 0 287 -17 269 0 283
 77 286 79 276 268 0 279 +17 267 0 288 260 287 75 284 258 0 280 +15 288 84 0 260
 39 0 17 260 0 288 289 267 85 280 247 0 0 +17 287 0 288 267 289 74 250 248 0 0 -
17 289 0 288 287 260 78 44 33 0 0 -17 250 0 290 96 90 78 287 248 0 289 +15 290 3
 0 250 37 291 17 96 0 290 93 250 94 98 251 0 273 +17 90 0 290 250 93 74 286 256
 0 284 +17 93 0 290 90 96 91 272 254 0 276 +17 286 0 283 269 284 91 90 256 0 0 -
17 276 0 271 272 81 91 269 268 0 286 -17 98 0 277 44 273 78 96 251 0 250 -15 277
 82 0 84 292 0 17 44 0 277 84 98 85 289 33 0 260 +17 84 0 277 273 44 82 87 261 0
 270 +14 255 292 83 293 ?275 39 277 28 40 -0 0 275 39 43 81 1 293 621 294 292 29
5 0 296 297 298 14 275 81 297 ?285 292 271 28 299 -0 0 285 292 43 14 39 85 296 ?
292 281 288 28 29 -0 0 292 281 43 50 40 88 0 292 299 29 0 +-.0068160522284949 .0
56 .000763376857079086 0 0 1 1 0 0 13 43 29 0 0 0 0 0 0 32 37 14 37 405 300 ?281
 0 290 28 301 +0 0 281 0 43 81 1 300 618 294 37 302 0 0 303 304 14 281 385 303 ?
39 37 305 28 306 -0 0 39 37 43 50 301 2 0 37 307 306 0 +0 .056 0 0 1 0 0 0 1 50
 307 208 0 308 309 301 0 +-.0058160522284949 .056 .003763376857079085 1 0 0 0 0
 -1 50 306 65 0 281 301 310 0 +0 0 0 0 1 0 0 0 1 50 310 86 0 285 306 299 0 +-.00
68160522284949 .056 .00476337685707909 0 0 -1 -1 0 0 14 285 79 311 ?308 275 283
 28 310 -0 0 308 275 43 50 299 87 0 275 310 40 0 +-.0068160522284949 .056 .00076
3376857079086 1 0 0 0 0 -1 81 1 311 623 294 285 312 0 297 313 314 14 308 184 313
 ?315 285 316 28 307 +0 0 315 285 43 81 1 313 624 294 308 317 0 311 318 319 14 3
15 188 318 ?320 308 321 28 309 +0 0 320 308 43 15 316 187 0 73 308 0 17 73 0 316
 322 246 71 229 216 0 239 -17 322 0 316 116 73 88 239 227 0 323 -17 246 0 316 73
 116 106 324 244 0 229 +17 229 0 282 232 237 106 73 216 0 0 +17 239 0 325 326 11
1 71 322 227 0 237 +15 325 199 0 326 327 0 17 326 0 325 70 239 99 237 220 0 235
 -17 111 0 325 239 70 88 328 225 0 322 +17 237 0 282 229 235 71 326 220 0 0 +15
 282 123 0 229 281 329 17 235 0 282 237 232 99 330 233 0 0 +17 232 0 282 235 229
 103 108 230 0 0 +17 330 0 331 332 101 103 235 233 0 232 -15 331 195 0 330 320 0
 17 332 0 331 224 330 112 105 242 0 333 -17 101 0 331 330 224 99 70 240 0 326 +1
7 224 0 331 101 332 68 333 222 0 328 +17 70 0 325 111 326 68 101 240 0 224 -17 3
33 0 291 334 328 112 224 222 0 0 -17 328 0 291 333 323 68 111 225 0 0 -15 291 12
8 0 334 37 335 17 323 0 291 328 334 88 116 217 0 0 -17 334 0 291 323 333 102 114
 219 0 0 -17 116 0 316 246 322 102 323 217 0 324 +17 324 0 321 114 108 102 246 2
44 0 334 -15 321 191 0 108 315 0 17 114 0 321 105 324 112 334 219 0 332 +17 108
 0 321 324 105 106 232 230 0 246 -17 105 0 321 108 114 103 332 242 0 330 +15 335
 258 0 336 37 155 17 336 0 335 337 338 120 132 188 0 0 -17 337 0 335 339 336 109
 134 186 0 0 -17 338 0 335 336 339 130 193 191 0 0 -17 132 0 340 123 341 130 336
 188 0 342 +15 340 321 0 126 343 0 17 123 0 340 126 132 121 342 211 0 344 +17 34
1 0 340 132 126 120 215 213 0 336 -17 342 0 345 193 344 130 123 211 0 338 -15 34
5 325 0 344 346 0 17 193 0 345 119 342 55 338 191 0 339 +17 344 0 345 342 119 12
1 204 202 0 201 -17 119 0 345 344 193 117 62 209 0 347 +17 204 0 305 206 201 117
 344 202 0 0 +17 201 0 305 204 198 121 126 199 0 0 +15 305 253 0 198 281 278 17
 198 0 305 201 206 124 67 166 0 0 +17 126 0 340 341 123 124 201 199 0 215 -17 21
5 0 348 67 134 124 341 213 0 198 +15 348 317 0 67 349 0 17 67 0 348 350 215 63 1
98 166 0 208 -17 134 0 348 215 350 120 337 186 0 341 +17 350 0 348 134 67 109 20
8 196 0 337 -17 208 0 351 347 129 63 350 196 0 206 +15 351 329 0 347 352 0 17 34
7 0 351 62 208 117 206 189 0 204 -17 129 0 351 208 62 109 339 194 0 350 +17 206
 0 305 198 204 63 347 189 0 0 +17 62 0 351 129 347 55 119 209 0 193 -17 339 0 33
5 338 337 55 129 194 0 0 -14 352 326 353 ?152 346 351 28 354 +0 0 152 346 43 81
 1 353 631 294 352 355 0 356 357 358 14 152 444 357 ?162 352 56 28 359 +0 0 162
 352 43 14 346 322 356 ?352 343 345 28 360 +0 0 352 343 43 50 354 341 0 352 359
 360 0 +-.003816052228494905 .056 .003763376857079085 0 0 -1 -1 0 0 50 359 468 0
 152 361 354 0 +-.000816052228494903 .056 .003763376857079085 -1 0 0 0 0 1 50 36
0 340 0 346 354 362 0 +-.003816052228494905 .056 .003763376857079085 1 0 0 0 0 -
1 50 362 339 0 343 360 363 0 +-.003816052228494905 .056 .001763376857079085 0 0
 1 1 0 0 14 343 318 364 ?346 349 340 28 362 +0 0 346 349 43 50 363 338 0 349 362
 365 0 +-.002816052228494905 .056 .003763376857079085 -1 0 0 0 0 1 14 349 314 36
6 ?343 327 348 28 363 +0 0 343 327 43 50 365 211 0 327 363 367 0 +-.005816052228
4949 .056 .001763376857079085 0 0 1 1 0 0 14 327 196 368 ?349 320 325 28 365 +0
 0 349 320 43 50 367 210 0 320 365 309 0 +-.0048160522284949 .056 .0037633768570
79085 -1 0 0 0 0 1 14 320 192 369 ?327 315 331 28 367 +0 0 327 315 43 50 309 209
 0 315 367 307 0 +-.0058160522284949 .056 .003763376857079085 0 0 -1 -1 0 0 81 1
 369 626 294 320 370 0 318 368 371 80 255 1 294 0 372 8001 0 0 0 0 3 5 0 0 0 FFF
FTFTFFFFFFF2 81 1 370 610 373 320 0 369 374 375 376 81 1 318 625 294 315 377 0 3
13 369 378 81 1 368 627 294 327 374 0 369 366 379 83 255 3 371 .792156862745098
 .819607843137255 .933333333333333 81 1 374 608 373 327 0 368 380 370 381 81 1 3
66 628 294 349 380 0 368 364 382 83 3 379 .792156862745098 .819607843137255 .933
333333333333 81 1 380 606 373 349 0 366 383 374 384 81 1 364 629 294 343 383 0 3
66 356 385 83 3 382 .792156862745098 .819607843137255 .933333333333333 81 1 383
 604 373 343 0 364 386 380 387 81 1 356 630 294 346 386 0 364 353 388 83 3 385 .
792156862745098 .819607843137255 .933333333333333 81 1 386 602 373 346 0 356 389
 383 390 83 3 388 .792156862745098 .819607843137255 .933333333333333 80 1 373 39
1 392 9000 1 1 1 1 1 1 1 1 0 FFFFTFTFFFFFFF1 81 1 389 600 373 152 0 357 355 386
 393 82 255 1 390 1158676583 81 1 357 632 294 152 389 0 353 394 395 81 1 355 598
 373 352 0 353 377 389 396 82 1 393 1170866279 81 1 377 596 373 315 0 318 317 35
5 397 82 1 396 1158414439 81 1 317 594 373 308 0 313 312 377 398 82 1 397 114720
7783 81 1 312 592 373 285 0 311 399 317 400 82 1 398 1147469927 81 1 399 590 373
 281 0 303 302 312 401 82 1 400 1181745255 81 1 303 619 294 281 399 0 300 296 40
2 81 1 302 588 373 37 0 300 403 399 404 82 1 401 1194917991 81 1 403 586 373 39
 0 296 405 302 406 82 1 404 1196752999 81 1 296 620 294 39 403 0 303 293 407 81
 1 405 584 373 275 0 297 295 403 408 82 1 406 1182531687 81 1 297 622 294 275 40
5 0 293 311 409 81 1 295 582 373 292 0 293 0 405 410 82 1 408 1182007399 82 1 41
0 1182269543 83 3 409 .792156862745098 .819607843137255 .933333333333333 83 3 40
7 .792156862745098 .819607843137255 .933333333333333 83 3 402 .792156862745098 .
819607843137255 .933333333333333 81 1 394 633 294 162 375 0 357 411 412 83 3 395
 .792156862745098 .819607843137255 .933333333333333 14 162 448 394 ?413 152 161
 28 361 +0 0 413 152 43 81 1 375 612 373 162 0 394 370 414 415 81 1 411 634 294
 413 414 0 394 416 417 83 3 412 .792156862745098 .819607843137255 .9333333333333
33 14 413 452 411 ?418 162 419 28 420 +0 0 418 162 43 81 1 414 614 373 413 0 411
 375 421 422 81 1 416 635 294 418 421 0 411 0 423 83 3 417 .792156862745098 .819
607843137255 .933333333333333 14 418 456 416 ?0 413 48 28 424 +0 0 0 413 43 81 1
 421 616 373 418 0 416 414 0 425 83 3 423 .792156862745098 .819607843137255 .933
333333333333 82 1 425 1170079847 15 48 459 0 50 418 0 50 424 471 0 418 0 420 0 +
-.001816052228494905 .056 .003763376857079085 0 0 -1 -1 0 0 50 420 470 0 413 424
 361 0 +-.001816052228494905 .056 .003763376857079085 1 0 0 0 0 -1 50 361 469 0
 162 420 359 0 +-.001816052228494905 .056 .001763376857079085 0 0 1 1 0 0 17 50
 0 48 46 61 135 182 159 0 180 -17 61 0 48 50 49 47 57 154 0 182 +17 182 0 329 59
 180 47 50 159 0 0 +17 180 0 329 182 164 135 426 178 0 0 +15 329 383 0 59 281 0
 17 164 0 329 180 59 138 143 165 0 0 +17 426 0 419 163 51 138 180 178 0 164 -15
 419 455 0 426 413 0 17 163 0 419 53 426 145 140 167 0 169 -17 51 0 419 426 53 1
35 46 52 0 50 +17 53 0 419 51 163 34 169 170 0 156 +17 156 0 155 169 149 34 49 1
72 0 0 -17 49 0 48 61 46 127 156 172 0 57 +17 140 0 161 143 147 138 163 167 0 42
6 +17 59 0 329 164 182 141 54 60 0 0 +82 1 422 1170341991 82 1 415 1170604135 79
 255 14 392 SWEntUnchanged82 1 387 1158938727 82 1 384 1159200871 82 1 381 11466
83495 83 3 378 .792156862745098 .819607843137255 .933333333333333 82 1 376 11469
45639 79 15 372 SDL/TYSA_COLOUR83 3 358 .792156862745098 .819607843137255 .93333
3333333333 83 3 319 .792156862745098 .819607843137255 .933333333333333 83 3 314
 .792156862745098 .819607843137255 .933333333333333 83 3 304 .792156862745098 .8
19607843137255 .933333333333333 83 3 298 .792156862745098 .819607843137255 .9333
33333333333 19 38 95 0 12 0 32 28 S0 74 4 CI16 index_map_offset0 0 1 dCCZ20 36 3
 0 0 421 416 25 0 0 0 0 0 0 0 0 0 0 0 0 0 0 0 0 0 80 1 5 427 428 8017 0 0 0 0 0
 0 0 0 0 TTTTTTTTTTTTTF3 84 255 19 35 CFD SECTION 1 OUTER79 13 428 SDL/TYSA_NAME
81 1 10 167 5 7 0 0 0 0 429 70 11 0 4 T7 0 0 3 20 1 430 430 13 13 94 0 7 0 431 0
 0 432 0 50 14 89 0 431 433 0 0 +0 .056 -.002 -1 0 0 0 0 1 30 15 93 0 434 435 0
 0 +0 .056 -.002 0 -1 0 29 16 70 0 436 437 0 0 0 0 19 17 28 0 7 432 0 438 V0 16
 18 74 0 ?439 0 440 441 0 0 7 18 19 25 0 442 0 443 444 ?7 17 442 0 445 446 447 1
9 439 18 0 448 -18 443 22 0 449 19 450 451 ?7 29 444 27 0 19 451 452 0 .056 0 29
 451 24 0 443 453 444 .001 .056 0 29 452 73 0 454 444 455 0 0 -.002 18 454 64 0
 456 457 0 452 ?7 29 455 72 0 457 452 437 .001 0 -.002 18 457 63 0 458 459 454 4
55 ?7 29 437 71 0 459 455 16 .001 0 0 18 459 62 0 460 436 457 437 ?7 17 460 0 46
1 462 463 459 449 440 0 464 +18 436 61 0 439 465 459 16 ?7 17 439 0 466 467 468
 436 442 18 0 447 +18 465 16 0 469 450 436 470 ?7 17 469 0 471 472 473 465 456 4
34 0 474 -18 450 19 0 475 443 465 453 ?7 29 470 18 0 465 0 453 0 .056 -.002 29 4
53 21 0 450 470 451 .001 .056 -.002 17 475 0 461 463 462 450 458 476 0 477 -15 4
61 80 0 462 478 0 17 463 0 461 460 475 443 477 479 0 480 +17 462 0 461 475 460 4
57 464 481 0 482 -17 458 0 471 473 472 457 475 476 0 462 +16 476 76 0 ?458 440 4
34 435 0 0 7 17 477 0 483 474 480 450 463 479 0 472 -15 483 3 0 448 484 0 17 474
 0 483 448 477 465 472 485 0 446 -17 480 0 483 477 448 443 468 486 0 0 -16 479 1
0 0 ?463 486 485 487 0 0 7 17 472 0 471 458 469 450 474 485 0 0 +15 471 82 0 473
 488 0 16 485 7 0 ?472 479 489 490 0 0 7 16 489 4 0 ?446 485 491 492 0 0 7 30 49
0 8 0 485 492 487 0 +0 .056 -.002 1 0 0 30 492 5 0 489 0 490 0 +0 .056 -.002 0 0
 -1 30 487 11 0 479 490 493 0 +.001 .056 -.002 0 0 1 30 493 14 0 486 487 494 0 +
0 .056 0 -1 0 0 16 486 13 0 ?468 434 479 493 0 0 7 30 494 69 0 495 493 496 0 +0
 0 -.002 0 0 -1 16 495 57 0 ?497 498 0 494 0 0 7 30 496 68 0 498 494 499 0 +0 0
 -.002 1 0 0 16 498 53 0 ?482 481 495 496 0 0 7 30 499 67 0 481 496 500 0 +.001
 0 -.002 0 0 1 16 481 49 0 ?464 491 498 499 0 0 7 30 500 66 0 491 499 441 0 +0 0
 0 -1 0 0 16 491 45 0 ?501 489 481 500 0 0 7 30 441 90 0 18 500 502 0 +0 .056 0
 0 -1 0 30 502 91 0 440 441 435 0 +.001 .056 0 0 -1 0 16 440 75 0 ?460 18 476 50
2 0 0 7 30 435 92 0 476 502 15 0 +.001 .056 -.002 0 -1 0 17 501 0 503 497 464 43
6 467 491 0 0 +15 503 44 0 497 504 0 17 497 0 503 482 501 454 447 495 0 0 +17 46
4 0 503 501 482 459 462 481 0 467 +17 467 0 466 449 439 459 501 491 0 0 -15 466
 78 0 467 505 0 17 449 0 466 468 467 443 460 440 0 463 -17 468 0 466 439 449 19
 480 486 0 0 +14 505 79 506 ?478 431 466 13 507 +0 0 478 431 438 81 1 506 162 29
4 505 508 0 509 510 511 14 478 81 510 ?488 505 461 13 512 +0 0 488 505 438 14 43
1 85 509 ?505 0 445 13 14 +0 0 505 0 438 50 507 86 0 505 513 512 0 +0 .056 0 0 0
 1 1 0 0 13 438 29 0 0 0 0 0 0 17 431 50 513 65 0 504 514 507 0 +0 0 0 0 1 0 0 0
 1 50 512 87 0 478 507 433 0 +.001 .056 -.002 1 0 0 0 0 -1 50 433 88 0 488 512 1
4 0 +0 .056 -.002 0 0 -1 -1 0 0 14 488 83 515 ?484 478 471 13 433 +0 0 484 478 4
38 81 1 515 164 294 488 516 0 510 517 518 14 484 1 517 ?504 488 483 13 514 +0 0
 504 488 438 81 1 517 165 294 484 519 0 515 520 521 14 504 43 520 ?0 484 503 13
 513 -0 0 0 484 438 50 514 2 0 484 0 513 0 +0 .056 0 0 1 0 0 0 1 81 1 520 166 29
4 504 522 0 517 0 523 81 1 522 159 373 504 0 520 519 0 524 83 3 523 .79215686274
5098 .819607843137255 .933333333333333 81 1 519 157 373 484 0 517 516 522 525 82
 1 524 444924062 81 1 516 155 373 488 0 515 526 519 527 82 1 525 439287966 81 1
 526 153 373 431 0 509 528 516 529 82 1 527 446103710 81 1 509 161 294 431 526 0
 0 506 530 81 1 528 151 373 478 0 510 508 526 531 82 1 529 446234782 81 1 510 16
3 294 478 528 0 506 515 532 81 1 508 149 373 505 0 506 0 528 533 82 1 531 445972
638 82 1 533 445841566 83 3 532 .792156862745098 .819607843137255 .9333333333333
33 83 3 530 .792156862745098 .819607843137255 .933333333333333 83 3 521 .7921568
62745098 .819607843137255 .933333333333333 83 3 518 .792156862745098 .8196078431
37255 .933333333333333 15 445 84 0 447 431 0 17 447 0 445 442 456 436 497 495 0
 501 -17 456 0 445 447 446 454 469 434 0 473 +17 446 0 445 456 442 465 448 489 0
 0 +16 434 77 0 ?456 476 486 15 0 0 7 17 473 0 471 469 458 454 482 498 0 497 -17
 482 0 503 464 497 457 473 498 0 0 +17 448 0 483 480 474 19 446 489 0 468 -83 3
 511 .792156862745098 .819607843137255 .933333333333333 19 432 95 0 7 0 17 13 S0
 74 20 430 3 0 0 522 520 10 0 0 0 0 0 0 0 0 0 0 0 0 0 0 0 0 0 84 13 429 CFD SECT
ION 174 20 6 1 0 0 2 0 0 0 0 0 0 0 0 0 0 0 0 0 0 0 0 0 0 0 1 0 
